<svg xmlns="http://www.w3.org/2000/svg" xmlns:xlink="http://www.w3.org/1999/xlink" width="1080" zoomAndPan="magnify" viewBox="0 0 810 809.999993" height="1080" preserveAspectRatio="xMidYMid meet" version="1.0"><defs><g/></defs><g fill="#ededed" fill-opacity="1"><g transform="translate(143.974172, 435.374998)"><g><path d="M 46.5 -91.546875 L 46.5 -25.859375 C 46.5 -16.898438 44.035156 -10.070312 39.109375 -5.375 C 34.191406 -0.675781 27.148438 1.671875 17.984375 1.671875 C 15.535156 1.671875 13.128906 1.375 10.765625 0.78125 C 8.398438 0.1875 6.398438 -0.53125 4.765625 -1.375 C 3.140625 -2.226562 1.679688 -3.097656 0.390625 -3.984375 C -0.898438 -4.878906 -1.84375 -5.625 -2.4375 -6.21875 L -3.4375 -7.109375 L 3.21875 -24.53125 C 7.582031 -20.382812 11.539062 -18.3125 15.09375 -18.3125 C 18.269531 -18.3125 20.820312 -19.363281 22.75 -21.46875 C 24.675781 -23.582031 25.640625 -26.820312 25.640625 -31.1875 L 25.640625 -91.546875 Z M 46.5 -91.546875 "/></g></g></g><g fill="#ededed" fill-opacity="1"><g transform="translate(195.678302, 435.374998)"><g><path d="M 2.546875 -45.828125 C 2.546875 -59.066406 7.054688 -70.273438 16.078125 -79.453125 C 25.109375 -88.628906 35.988281 -93.21875 48.71875 -93.21875 C 61.507812 -93.21875 72.378906 -88.644531 81.328125 -79.5 C 90.285156 -70.363281 94.765625 -59.140625 94.765625 -45.828125 C 94.765625 -32.441406 90.363281 -21.175781 81.5625 -12.03125 C 72.757812 -2.894531 61.8125 1.671875 48.71875 1.671875 C 35.320312 1.671875 24.273438 -2.859375 15.578125 -11.921875 C 6.890625 -20.984375 2.546875 -32.285156 2.546875 -45.828125 Z M 25.078125 -45.828125 C 25.078125 -41.015625 25.816406 -36.628906 27.296875 -32.671875 C 28.773438 -28.722656 31.363281 -25.378906 35.0625 -22.640625 C 38.757812 -19.898438 43.3125 -18.53125 48.71875 -18.53125 C 56.476562 -18.53125 62.335938 -21.191406 66.296875 -26.515625 C 70.253906 -31.847656 72.234375 -38.285156 72.234375 -45.828125 C 72.234375 -53.296875 70.21875 -59.710938 66.1875 -65.078125 C 62.15625 -70.441406 56.332031 -73.125 48.71875 -73.125 C 41.164062 -73.125 35.335938 -70.441406 31.234375 -65.078125 C 27.128906 -59.710938 25.078125 -53.296875 25.078125 -45.828125 Z M 25.078125 -45.828125 "/></g></g></g><g fill="#ededed" fill-opacity="1"><g transform="translate(292.651319, 435.374998)"><g><path d="M 6.65625 -91.546875 L 35.0625 -91.546875 C 43.644531 -91.546875 50.488281 -89.710938 55.59375 -86.046875 C 60.695312 -82.390625 63.25 -76.457031 63.25 -68.25 C 63.25 -59.070312 59.441406 -52.523438 51.828125 -48.609375 C 64.847656 -46.316406 71.359375 -38.617188 71.359375 -25.515625 C 71.359375 -17.828125 68.691406 -11.648438 63.359375 -6.984375 C 58.035156 -2.328125 50.710938 0 41.390625 0 L 6.65625 0 Z M 27.515625 -55.703125 L 29.1875 -55.703125 C 33.84375 -55.703125 37.316406 -56.515625 39.609375 -58.140625 C 41.910156 -59.773438 43.0625 -62.441406 43.0625 -66.140625 C 43.0625 -72.347656 38.4375 -75.453125 29.1875 -75.453125 L 27.515625 -75.453125 Z M 27.515625 -16.09375 L 34.0625 -16.09375 C 44.269531 -16.09375 49.375 -19.492188 49.375 -26.296875 C 49.375 -30.367188 48.097656 -33.289062 45.546875 -35.0625 C 42.992188 -36.84375 39.164062 -37.734375 34.0625 -37.734375 L 27.515625 -37.734375 Z M 27.515625 -16.09375 "/></g></g></g><g fill="#ededed" fill-opacity="1"><g transform="translate(362.662424, 435.374998)"><g><path d="M 55.375 -18.859375 C 58.550781 -18.859375 61.640625 -19.335938 64.640625 -20.296875 C 67.640625 -21.265625 69.835938 -22.191406 71.234375 -23.078125 L 73.34375 -24.53125 L 82.234375 -6.765625 C 81.929688 -6.546875 81.519531 -6.25 81 -5.875 C 80.488281 -5.507812 79.289062 -4.828125 77.40625 -3.828125 C 75.519531 -2.828125 73.503906 -1.957031 71.359375 -1.21875 C 69.210938 -0.476562 66.398438 0.1875 62.921875 0.78125 C 59.441406 1.375 55.851562 1.671875 52.15625 1.671875 C 43.644531 1.671875 35.578125 -0.414062 27.953125 -4.59375 C 20.335938 -8.78125 14.195312 -14.535156 9.53125 -21.859375 C 4.875 -29.179688 2.546875 -37.097656 2.546875 -45.609375 C 2.546875 -52.046875 3.914062 -58.222656 6.65625 -64.140625 C 9.394531 -70.054688 13.035156 -75.125 17.578125 -79.34375 C 22.128906 -83.5625 27.4375 -86.925781 33.5 -89.4375 C 39.570312 -91.957031 45.789062 -93.21875 52.15625 -93.21875 C 58.070312 -93.21875 63.523438 -92.515625 68.515625 -91.109375 C 73.515625 -89.703125 77.050781 -88.296875 79.125 -86.890625 L 82.234375 -84.78125 L 73.34375 -67.03125 C 72.832031 -67.46875 72.054688 -68 71.015625 -68.625 C 69.984375 -69.257812 67.910156 -70.09375 64.796875 -71.125 C 61.691406 -72.164062 58.550781 -72.6875 55.375 -72.6875 C 50.34375 -72.6875 45.828125 -71.867188 41.828125 -70.234375 C 37.835938 -68.609375 34.675781 -66.460938 32.34375 -63.796875 C 30.019531 -61.140625 28.242188 -58.273438 27.015625 -55.203125 C 25.796875 -52.140625 25.1875 -49.015625 25.1875 -45.828125 C 25.1875 -38.878906 27.796875 -32.644531 33.015625 -27.125 C 38.234375 -21.613281 45.6875 -18.859375 55.375 -18.859375 Z M 55.375 -18.859375 "/></g></g></g><g fill="#ededed" fill-opacity="1"><g transform="translate(445.877218, 435.374998)"><g><path d="M 6.65625 -91.546875 L 39.390625 -91.546875 C 48.191406 -91.546875 55.367188 -89.195312 60.921875 -84.5 C 66.472656 -79.800781 69.25 -73.085938 69.25 -64.359375 C 69.25 -57.628906 67.5625 -51.988281 64.1875 -47.4375 C 60.820312 -42.882812 56.253906 -39.6875 50.484375 -37.84375 L 82 0 L 55.484375 0 L 27.515625 -36.171875 L 27.515625 0 L 6.65625 0 Z M 27.515625 -50.9375 L 29.96875 -50.9375 C 31.882812 -50.9375 33.507812 -50.972656 34.84375 -51.046875 C 36.175781 -51.117188 37.691406 -51.375 39.390625 -51.8125 C 41.097656 -52.257812 42.46875 -52.890625 43.5 -53.703125 C 44.53125 -54.515625 45.414062 -55.695312 46.15625 -57.25 C 46.894531 -58.8125 47.265625 -60.703125 47.265625 -62.921875 C 47.265625 -65.140625 46.894531 -67.023438 46.15625 -68.578125 C 45.414062 -70.128906 44.53125 -71.3125 43.5 -72.125 C 42.46875 -72.9375 41.097656 -73.566406 39.390625 -74.015625 C 37.691406 -74.460938 36.175781 -74.722656 34.84375 -74.796875 C 33.507812 -74.867188 31.882812 -74.90625 29.96875 -74.90625 L 27.515625 -74.90625 Z M 27.515625 -50.9375 "/></g></g></g><g fill="#ededed" fill-opacity="1"><g transform="translate(524.98679, 435.374998)"><g><path d="M 38.84375 -79.234375 L 67.359375 0 L 56.8125 0 L 39.28125 -49.9375 C 38.09375 -53.34375 37 -56.597656 36 -59.703125 C 35.007812 -62.804688 34.179688 -65.691406 33.515625 -68.359375 C 32.921875 -65.691406 32.140625 -62.804688 31.171875 -59.703125 C 30.210938 -56.597656 29.144531 -53.378906 27.96875 -50.046875 L 10.546875 0 L 0 0 L 28.40625 -79.234375 Z M 38.84375 -79.234375 "/></g></g></g><g fill="#ededed" fill-opacity="1"><g transform="translate(592.113429, 435.374998)"><g><path d="M 6.65625 -91.546875 L 40.0625 -91.546875 C 49.382812 -91.546875 56.929688 -89.140625 62.703125 -84.328125 C 68.472656 -79.523438 71.359375 -72.535156 71.359375 -63.359375 C 71.359375 -54.191406 68.429688 -47 62.578125 -41.78125 C 56.734375 -36.5625 49.226562 -33.953125 40.0625 -33.953125 L 27.515625 -33.953125 L 27.515625 0 L 6.65625 0 Z M 27.515625 -50.609375 L 33.40625 -50.609375 C 38.0625 -50.609375 41.882812 -51.550781 44.875 -53.4375 C 47.875 -55.320312 49.375 -58.410156 49.375 -62.703125 C 49.375 -67.066406 47.875 -70.191406 44.875 -72.078125 C 41.882812 -73.960938 38.0625 -74.90625 33.40625 -74.90625 L 27.515625 -74.90625 Z M 27.515625 -50.609375 "/></g></g></g></svg>